{"title":"Pain.and.Gain.2013.480p.BRRip.x264-Fastbet99","uid":8808408,"size":1258283794,"categoryP":"video","categoryS":"movies","magnet":"?xt=urn:btih:1e61117e8a15166598d61f0afb7693784c792fcb&amp;dn=Pain.and.Gain.2013.480p.BRRip.x264-Fastbet99&amp;tr=udp%3A%2F%2Ftracker.openbittorrent.com%3A80&amp;tr=udp%3A%2F%2Fopen.demonii.com%3A1337&amp;tr=udp%3A%2F%2Ftracker.coppersurfer.tk%3A6969&amp;tr=udp%3A%2F%2Fexodus.desync.com%3A6969","seeders":1,"leechers":0,"uploader":"Fastbet99","files":-1,"time":1376391813,"description":"Pain &amp; Gain (2013)\n\n\n\nIMDB Info\t\t\t\t : http://www.imdb.com/title/tt1980209/\n\nSource\t\t\t\t\t : 720p-AMIABLE (Thanks)\nComplete name                            : Pain.and.Gain.2013.480p.BRRip.x264-Fastbet99.mp4\nFormat                                   : MPEG-4\nFormat profile                           : Base Media\nCodec ID                                 : isom\nFile size                                : 1.17 GiB\nDuration                                 : 2h 9mn\nOverall bit rate mode                    : Variable\nOverall bit rate                         : 1 294 Kbps\n\n\nVideo\nID                                       : 1\nFormat                                   : AVC\nFormat/Info                              : Advanced Video Codec\nFormat profile                           : &lt;a class=&quot;__cf_email__&quot; href=&quot;/cdn-cgi/l/email-protection&quot; data-cfemail=&quot;9fd7f6f8f7dfd3abb1ae&quot;&gt;[email&amp;#160;protected]&lt;/a&gt;&lt;script cf-hash='f9e31' type=&quot;text/javascript&quot;&gt;\n/* &lt;![CDATA[ */!function(){try{var t=&quot;currentScript&quot;in document?document.currentScript:function(){for(var t=document.getElementsByTagName(&quot;script&quot;),e=t.length;e--;)if(t[e].getAttribute(&quot;cf-hash&quot;))return t[e]}();if(t&amp;&amp;t.previousSibling){var e,r,n,i,c=t.previousSibling,a=c.getAttribute(&quot;data-cfemail&quot;);if(a){for(e=&quot;&quot;,r=parseInt(a.substr(0,2),16),n=2;a.length-n;n+=2)i=parseInt(a.substr(n,2),16)^r,e+=String.fromCharCode(i);e=document.createTextNode(e),c.parentNode.replaceChild(e,c)}}}catch(u){}}();/* ]]&gt; */&lt;/script&gt;\nFormat settings, CABAC                   : Yes\nFormat settings, ReFrames                : 4 frames\nCodec ID                                 : avc1\nCodec ID/Info                            : Advanced Video Coding\nDuration                                 : 2h 9mn\nBit rate                                 : 1 194 Kbps\nMaximum bit rate                         : 8 688 Kbps\nWidth                                    : 848 pixels\nHeight                                   : 352 pixels\nDisplay aspect ratio                     : 16:9\nFrame rate mode                          : Constant\nFrame rate                               : 23.976 fps\nColor space                              : YUV\nChroma subsampling                       : 4:2:0\nBit depth                                : 8 bits\nScan type                                : Progressive\nBits/(Pixel*Frame)                       : 0.167\nStream size                              : 1.08 GiB (92%)\n\nAudio\nID                                       : 2\nFormat                                   : AAC\nFormat/Info                              : Advanced Audio Codec\nFormat profile                           : LC\nCodec ID                                 : 40\nDuration                                 : 2h 9mn\nBit rate mode                            : Variable\nBit rate                                 : 96.0 Kbps\nMaximum bit rate                         : 135 Kbps\nChannel(s)                               : 2 channels\nChannel positions                        : Front: L R\nSampling rate                            : 48.0 KHz\nCompression mode                         : Lossy\nStream size                              : 88.9 MiB (7%)\nLanguage                                 : English\nEncoder\t\t\t\t\t : Fastbet99\n\nText #1\nID                                       : 3\nFormat                                   : Timed Text\nCodec ID                                 : tx3g\nDuration                                 : 2h 0mn\nBit rate mode                            : Variable\nBit rate                                 : 98 bps\nStream size                              : 87.1 KiB (0%)\nLanguage                                 : English\n\n\nText #2\nID                                       : 4\nFormat                                   : Timed Text\nCodec ID                                 : tx3g\nDuration                                 : 2h 1mn\nBit rate mode                            : Variable\nBit rate                                 : 107 bps\nStream size                              : 95.8 KiB (0%)\nLanguage                                 : English\n\nScreenshots\n &lt;a href=&quot;\nhttp://lookpic.com/O/i2/1059/B3EsVlob.jpeg&quot; rel=&quot;nofollow&quot; target=&quot;_NEW&quot;&gt;\nhttp://lookpic.com/O/i2/1059/B3EsVlob.jpeg&lt;/a&gt;\n\nStairway To heaven - Help People With Keep Seed As Long You Can","torrent":{"xt":"urn:btih:1e61117e8a15166598d61f0afb7693784c792fcb","amp;dn":"Pain.and.Gain.2013.480p.BRRip.x264-Fastbet99","amp;tr":["udp%3A%2F%2Ftracker.openbittorrent.com%3A80","udp%3A%2F%2Fopen.demonii.com%3A1337","udp%3A%2F%2Ftracker.coppersurfer.tk%3A6969","udp%3A%2F%2Fexodus.desync.com%3A6969"],"infoHash":"1e61117e8a15166598d61f0afb7693784c792fcb","infoHashBuffer":{"type":"Buffer","data":[30,97,17,126,138,21,22,101,152,214,31,10,251,118,147,120,76,121,47,203]},"announce":[],"urlList":[]}}